<?xml version="1.0" encoding="utf-8"?>
<!-- Generator: Adobe Illustrator 27.0.0, SVG Export Plug-In . SVG Version: 6.00 Build 0)  -->
<svg version="1.1" id="圖層_1" xmlns="http://www.w3.org/2000/svg" xmlns:xlink="http://www.w3.org/1999/xlink" x="0px" y="0px"
	 viewBox="0 0 254 235" style="enable-background:new 0 0 254 235;" xml:space="preserve">
<g>
	<defs>
		<path id="SVGID_1_" d="M251.7,117.6c0,23,0,46,0,69c0,4.4-1.3,8-4.5,11.2c-10.9,10.7-21.6,21.6-32.4,32.5
			c-3.3,3.3-7.1,4.8-11.8,4.8c-17-0.1-34.1,0-51.1-0.1c-4.7,0-5-0.4-5-5.1c0-3.5,0-7,0-10.6c0-4.1,0.6-4.7,4.8-4.7c2,0,4,0,5.9,0
			c3.9,0,4.4-0.5,4.4-4.4c0-21.1,0-42.2,0-63.3c0-5.1-0.1-10.1,0-15.2c0.1-2.8-1.2-4-4-4c-20.8,0-41.6,0-62.4,0
			c-3.3,0-4.1,1.7-4.1,4.6c0,26.1,0,52.1,0,78.2c0,2.8,1.1,4.3,4.1,4.2c2.4-0.1,4.8,0,7.3,0c2.7,0,4.1,1.2,4.1,4c0,4.2,0,8.4,0,12.5
			c0,2.7-1.4,3.9-4.1,3.9c-18,0-36.1,0.1-54.1-0.2c-3-0.1-6.6-1.6-8.8-3.7c-11.5-11-22.7-22.4-33.9-33.7c-2.8-2.8-4-6.1-4-10.1
			c0.1-38,0-76.1,0-114.1c0-8.5,0.1-17,0-25.6c0-3.9,1.2-7.1,3.8-9.8C17.4,26.3,28.8,15,40.2,3.6C42.7,1.1,45.8,0,49.4,0
			c17.7,0,35.4,0,53.1,0c3.8,0,4.6,0.8,4.7,4.6c0,3.6,0,7.3,0,10.9c0,3.8-1.1,4.8-5,4.8c-2,0-4,0-5.9,0c-3.9,0-4.6,0.6-4.6,4.6
			c0,12.9,0,25.7,0,38.6c0,12.9,0,25.7,0,38.6c0,4.4,0.6,5,4.9,5c20.2,0,40.5,0,60.7,0c4.1,0,4.7-0.6,4.7-4.8c0-25.8,0-51.7,0-77.5
			c0-4.1-0.4-4.4-4.6-4.5c-2.2,0-4.4,0-6.6,0c-2.7,0-4.1-1.1-4-4c0.1-4.2,0.1-8.4,0-12.5c-0.1-2.6,1-3.9,3.7-3.9
			c18.4,0,36.7-0.1,55.1,0.2c2.8,0,6.1,1.7,8.1,3.7c11.8,11.4,23.2,23.1,34.8,34.7c2.6,2.6,3.2,5.9,3.2,9.4
			C251.7,71.2,251.7,94.4,251.7,117.6z M182.5,117.4c0,30.8,0,61.6,0,92.4c0,4.3,0.5,4.8,4.7,4.8c3.6,0,7.3-0.1,10.9,0
			c2.4,0.1,4.1-0.6,5.8-2.3c8.2-8.4,16.7-16.6,24.8-25.1c1.4-1.5,2.5-4,2.5-6c0.1-42.4,0.1-84.9,0.2-127.3c0-2.7-0.8-4.6-2.7-6.4
			c-5.7-5.6-11.9-10.9-16.9-17.1c-6.5-8.2-14.2-11.6-24.5-10c-4.4,0.7-4.8,0.4-4.8,5C182.5,56,182.5,86.7,182.5,117.4z M22.7,117.5
			c0,21.4,0,42.9,0.1,64.3c0,1.6,0.6,3.5,1.7,4.6c8.6,8.9,17.4,17.7,26.2,26.4c0.8,0.8,2,1.5,3.1,1.6c4.7,0.2,9.5,0.1,14.2,0.1
			c2.2,0,3.2-1.2,3.2-3.3c0-1,0-2,0-3c0-55.6,0-111.1,0-166.7c0-5.8-0.1-11.7,0-17.5c0-2.6-1.1-3.8-3.8-3.7
			c-4.3,0.1-8.6-0.1-12.9,0.1c-1.5,0.1-3.2,0.8-4.3,1.8c-8.6,8.4-16.9,16.9-25.5,25.4c-1.6,1.6-2.3,3.2-2.2,5.5
			C22.7,74.6,22.7,96.1,22.7,117.5z"/>
	</defs>
	<use xlink:href="#SVGID_1_"  style="overflow:visible;fill:#FFFFFF;"/>
	<clipPath id="SVGID_00000021111862733151922030000013832163739890902446_">
		<use xlink:href="#SVGID_1_"  style="overflow:visible;"/>
	</clipPath>
</g>
</svg>
